<?xml version="1.0" encoding="utf-8"?>
<!-- Generator: Adobe Illustrator 24.0.1, SVG Export Plug-In . SVG Version: 6.00 Build 0)  -->
<svg version="1.1" id="Layer_1" xmlns="http://www.w3.org/2000/svg" xmlns:xlink="http://www.w3.org/1999/xlink" x="0px" y="0px"
	 viewBox="0 0 841.89 296.4" enable-background="new 0 0 841.89 296.4" xml:space="preserve">
<path fill="#FFFFFF" d="M72.2,177.84c-15.77,0-28.95-2.3-39.55-6.9c-10.6-4.6-18.6-10.6-24.02-17.99
	c-5.42-7.39-8.3-15.28-8.62-23.66c0-1.31,0.49-2.5,1.48-3.57c0.99-1.07,2.22-1.6,3.7-1.6h26.36c2.13,0,3.78,0.46,4.93,1.36
	c1.15,0.9,2.22,2.01,3.2,3.33c1.15,2.8,2.99,5.5,5.54,8.13c2.54,2.63,6.04,4.8,10.47,6.53s9.94,2.59,16.51,2.59
	c10.68,0,18.68-1.72,24.02-5.17c5.34-3.45,8.01-8.13,8.01-14.04c0-4.27-1.44-7.72-4.31-10.35c-2.88-2.63-7.39-5.01-13.55-7.15
	c-6.16-2.13-14.33-4.44-24.52-6.9c-12.32-2.63-22.79-6.04-31.42-10.23c-8.62-4.19-15.12-9.61-19.47-16.26
	C6.61,69.3,4.44,61.04,4.44,51.19c0-9.86,2.71-18.6,8.13-26.24c5.42-7.64,13.06-13.63,22.92-17.99c9.86-4.35,21.6-6.53,35.24-6.53
	c11,0,20.74,1.48,29.2,4.44c8.46,2.96,15.52,6.82,21.19,11.58c5.67,4.77,9.98,9.86,12.94,15.28c2.96,5.42,4.52,10.68,4.68,15.77
	c0,1.32-0.49,2.51-1.48,3.57c-0.98,1.07-2.22,1.6-3.7,1.6h-27.6c-1.64,0-3.12-0.33-4.43-0.99c-1.32-0.65-2.38-1.8-3.2-3.45
	c-0.98-4.27-3.9-8.01-8.75-11.21c-4.85-3.2-11.13-4.8-18.85-4.8c-8.05,0-14.42,1.48-19.1,4.44c-4.68,2.96-7.02,7.48-7.02,13.55
	c0,3.94,1.19,7.27,3.57,9.98c2.38,2.71,6.41,5.09,12.07,7.14c5.67,2.06,13.18,4.31,22.55,6.78c14.45,2.96,26.2,6.49,35.24,10.6
	c9.03,4.11,15.68,9.41,19.96,15.89c4.27,6.49,6.41,14.66,6.41,24.52c0,11.01-3.08,20.45-9.24,28.34s-14.62,13.92-25.38,18.11
	C99.01,175.74,86.49,177.84,72.2,177.84z"/>
<path fill="#8CC0DE" d="M334.36,1.72C333.21,0.58,331.73,0,329.93,0h-22.92c-2.46,0-4.31,0.66-5.54,1.97
	c-1.23,1.32-2.01,2.3-2.34,2.96L253.3,88.46L207.96,4.93c-0.49-0.66-1.36-1.64-2.59-2.96C204.14,0.66,202.29,0,199.83,0h-22.92
	c-1.64,0-3.08,0.58-4.31,1.72c-1.23,1.15-1.85,2.63-1.85,4.44c0,31.73,0,63.45,0,95.18c12.4,0,24.8,0,37.21,0V66.77l18.45,34.57
	h54.03l18.45-34.57v34.57h37.21V6.16C336.09,4.36,335.51,2.88,334.36,1.72z"/>
<path fill="#8CC0DE" d="M417.89,101.34l23.16-64.13l22.94,64.13h37L465.94,6.65c-0.49-1.81-1.48-3.36-2.96-4.68
	C461.5,0.66,459.44,0,456.82,0h-31.54c-2.63,0-4.68,0.66-6.16,1.97c-1.48,1.32-2.46,2.88-2.96,4.68l-35.05,94.69H417.89z"/>
<path fill="#8CC0DE" d="M655.38,101.34c8.06-3.9,14.7-9.28,19.74-16.33c5.75-8.05,8.62-18.07,8.62-30.06
	c0-17.74-5.91-31.33-17.74-40.78C654.18,4.72,638,0,617.47,0h-65.3c-1.81,0-3.29,0.58-4.44,1.72c-1.15,1.15-1.72,2.63-1.72,4.44
	v95.18H655.38z M585.19,30.8h31.54c9.2,0,15.93,2.14,20.2,6.41c4.27,4.27,6.41,10.1,6.41,17.49c0,7.39-2.18,13.14-6.53,17.25
	c-4.35,4.11-11.05,6.16-20.08,6.16h-31.54V30.8z"/>
<path fill="#8CC0DE" d="M750.28,101.34h39.67V34.25h44.6c1.8,0,3.28-0.57,4.43-1.72c1.15-1.15,1.73-2.54,1.73-4.19V6.16
	c0-1.8-0.58-3.28-1.73-4.44C837.83,0.58,836.35,0,834.55,0H705.43c-1.64,0-3.04,0.58-4.19,1.72c-1.15,1.15-1.73,2.63-1.73,4.44
	v22.18c0,1.64,0.57,3.04,1.73,4.19c1.15,1.15,2.54,1.72,4.19,1.72h44.85V101.34z"/>
<g>
	<path fill="#FFFFFF" d="M178.1,296.4c-1.64,0-3.08-0.57-4.31-1.72c-1.23-1.15-1.85-2.63-1.85-4.44V130.08
		c0-1.8,0.62-3.28,1.85-4.44c1.23-1.15,2.67-1.72,4.31-1.72h22.92c2.46,0,4.31,0.66,5.54,1.97c1.23,1.32,2.09,2.3,2.59,2.96
		l45.34,83.53l45.83-83.53c0.33-0.66,1.11-1.64,2.34-2.96c1.23-1.31,3.08-1.97,5.54-1.97h22.92c1.8,0,3.28,0.58,4.43,1.72
		c1.15,1.15,1.73,2.63,1.73,4.44v160.16c0,1.81-0.58,3.29-1.73,4.44c-1.15,1.15-2.63,1.72-4.43,1.72h-25.13
		c-1.64,0-3.04-0.57-4.19-1.72c-1.15-1.15-1.72-2.63-1.72-4.44v-99.55l-31.29,58.64c-0.82,1.48-1.89,2.8-3.2,3.94
		c-1.32,1.15-3.04,1.72-5.18,1.72h-11.58c-2.14,0-3.86-0.57-5.18-1.72c-1.32-1.15-2.38-2.46-3.2-3.94l-31.29-58.64v99.55
		c0,1.81-0.58,3.29-1.72,4.44c-1.15,1.15-2.55,1.72-4.19,1.72H178.1z"/>
	<path fill="#FFFFFF" d="M363.63,296.4c-1.48,0-2.71-0.53-3.7-1.6c-0.99-1.07-1.48-2.26-1.48-3.57c0-0.82,0.08-1.56,0.24-2.22
		l58.64-158.43c0.49-1.81,1.48-3.36,2.96-4.68c1.48-1.31,3.53-1.97,6.16-1.97H458c2.63,0,4.68,0.66,6.16,1.97
		c1.48,1.32,2.46,2.88,2.96,4.68l58.64,158.43c0.16,0.66,0.25,1.4,0.25,2.22c0,1.32-0.49,2.5-1.48,3.57c-0.99,1.07-2.22,1.6-3.7,1.6
		h-25.62c-2.46,0-4.27-0.57-5.42-1.72c-1.15-1.15-1.89-2.22-2.22-3.2l-10.6-27.6h-69.48l-10.6,27.6c-0.33,0.99-1.07,2.06-2.22,3.2
		c-1.15,1.15-2.96,1.72-5.42,1.72H363.63z M416.61,232.09h51l-25.38-70.96L416.61,232.09z"/>
	<path fill="#FFFFFF" d="M553.36,296.4c-1.81,0-3.29-0.57-4.44-1.72c-1.15-1.15-1.72-2.63-1.72-4.44V130.08
		c0-1.8,0.57-3.28,1.72-4.44c1.15-1.15,2.63-1.72,4.44-1.72h65.3c20.53,0,36.71,4.72,48.54,14.17
		c11.83,9.45,17.74,23.04,17.74,40.78c0,11.99-2.88,22.02-8.62,30.06c-5.75,8.05-13.47,14.04-23.16,17.99l34.74,61.6
		c0.49,0.98,0.74,1.89,0.74,2.71c0,1.32-0.49,2.5-1.48,3.57c-0.99,1.07-2.22,1.6-3.7,1.6H656.1c-2.96,0-5.17-0.78-6.65-2.34
		c-1.48-1.56-2.55-3-3.2-4.31l-30.06-56.42h-29.82v56.92c0,1.81-0.58,3.29-1.72,4.44c-1.15,1.15-2.63,1.72-4.44,1.72H553.36z
		 M586.37,202.03h31.54c9.03,0,15.73-2.05,20.08-6.16c4.35-4.1,6.53-9.86,6.53-17.25c0-7.39-2.14-13.22-6.41-17.49
		c-4.27-4.27-11.01-6.41-20.2-6.41h-31.54V202.03z"/>
	<path fill="#FFFFFF" d="M757.62,296.4c-1.81,0-3.29-0.57-4.44-1.72c-1.15-1.15-1.72-2.63-1.72-4.44V158.17h-44.85
		c-1.64,0-3.04-0.57-4.19-1.72c-1.15-1.15-1.73-2.54-1.73-4.19v-22.18c0-1.8,0.57-3.28,1.73-4.44c1.15-1.15,2.54-1.72,4.19-1.72
		h129.11c1.8,0,3.28,0.58,4.43,1.72c1.15,1.15,1.73,2.63,1.73,4.44v22.18c0,1.64-0.58,3.04-1.73,4.19
		c-1.15,1.15-2.63,1.72-4.43,1.72h-44.6v132.07c0,1.81-0.58,3.29-1.72,4.44c-1.15,1.15-2.63,1.72-4.44,1.72H757.62z"/>
</g>
</svg>
